<?xml version="1.0" encoding="UTF-8" standalone="no"?>
<!-- Created with Inkscape (http://www.inkscape.org/) -->

<svg
   width="135.46667mm"
   height="135.46667mm"
   viewBox="0 0 135.46669 135.46668"
   version="1.1"
   id="svg53021"
   inkscape:version="1.1.1 (c3084ef, 2021-09-22)"
   sodipodi:docname="icon-addon.svg"
   xmlns:inkscape="http://www.inkscape.org/namespaces/inkscape"
   xmlns:sodipodi="http://sodipodi.sourceforge.net/DTD/sodipodi-0.dtd"
   xmlns="http://www.w3.org/2000/svg"
   xmlns:svg="http://www.w3.org/2000/svg">
  <sodipodi:namedview
     id="namedview53023"
     pagecolor="#ffffff"
     bordercolor="#666666"
     borderopacity="1.0"
     inkscape:pageshadow="2"
     inkscape:pageopacity="0.0"
     inkscape:pagecheckerboard="0"
     inkscape:document-units="mm"
     showgrid="false"
     fit-margin-top="0"
     fit-margin-left="0"
     fit-margin-right="0"
     fit-margin-bottom="0"
     inkscape:zoom="0.078461974"
     inkscape:cx="-3001.4539"
     inkscape:cy="-1867.1465"
     inkscape:window-width="1440"
     inkscape:window-height="813"
     inkscape:window-x="0"
     inkscape:window-y="23"
     inkscape:window-maximized="0"
     inkscape:current-layer="layer1" />
  <defs
     id="defs53018">
    <clipPath
       clipPathUnits="userSpaceOnUse"
       id="clipPath173350-9-1">
      <rect
         style="fill:#000000;fill-opacity:1;stroke:none;stroke-width:40.0956;stroke-miterlimit:4;stroke-dasharray:none;stroke-opacity:1"
         id="rect173352-6-8"
         width="332.26355"
         height="607.00031"
         x="17577.004"
         y="25919.434"
         rx="57.737461"
         transform="rotate(-2.0027185)" />
    </clipPath>
    <filter
       style="color-interpolation-filters:sRGB"
       inkscape:label="Invert"
       id="filter173358-2-9"
       x="-0.032803837"
       y="-0.047985993"
       width="1.0656077"
       height="1.0959719">
      <feColorMatrix
         type="hueRotate"
         values="180"
         result="color1"
         id="feColorMatrix173354-1-6" />
      <feColorMatrix
         values="0 0 1 0 0 0 1 0 0 0 1 0 0 0 0 0.21 0.72 0.07 1 0 "
         result="color2"
         id="feColorMatrix173356-7-4" />
    </filter>
    <filter
       style="color-interpolation-filters:sRGB"
       inkscape:label="Invert"
       id="filter88345-2-8"
       x="0"
       y="0"
       width="1"
       height="1">
      <feColorMatrix
         values="1 0 0 0 0 0 1 0 0 0 0 0 1 0 0 -0.21 -0.72 -0.07 2 0 "
         result="fbSourceGraphic"
         id="feColorMatrix88343-0-4" />
      <feColorMatrix
         result="fbSourceGraphicAlpha"
         in="fbSourceGraphic"
         values="0 0 0 -1 0 0 0 0 -1 0 0 0 0 -1 0 0 0 0 1 0"
         id="feColorMatrix88715-6-3" />
      <feColorMatrix
         id="feColorMatrix88717-1-1"
         type="hueRotate"
         values="180"
         result="color1"
         in="fbSourceGraphic" />
      <feColorMatrix
         id="feColorMatrix88719-5-4"
         values="1 0 0 0 0 0 1 0 0 0 0 0 1 0 0 0.21 0.72 0.07 1 0 "
         result="color2" />
    </filter>
    <filter
       style="color-interpolation-filters:sRGB"
       inkscape:label="Invert"
       id="filter88349-5-9"
       x="-0.030212665"
       y="-0.032402139"
       width="1.0604253"
       height="1.0648043">
      <feColorMatrix
         values="1 0 0 0 0 0 1 0 0 0 0 0 1 0 0 -0.21 -0.72 -0.07 2 0 "
         result="fbSourceGraphic"
         id="feColorMatrix88347-4-2" />
      <feColorMatrix
         result="fbSourceGraphicAlpha"
         in="fbSourceGraphic"
         values="0 0 0 -1 0 0 0 0 -1 0 0 0 0 -1 0 0 0 0 1 0"
         id="feColorMatrix88721-7-0" />
      <feColorMatrix
         id="feColorMatrix88723-6-6"
         type="hueRotate"
         values="180"
         result="color1"
         in="fbSourceGraphic" />
      <feColorMatrix
         id="feColorMatrix88725-5-8"
         values="1 0 0 0 0 0 1 0 0 0 0 0 1 0 0 0.21 0.72 0.07 1 0 "
         result="color2" />
    </filter>
    <filter
       style="color-interpolation-filters:sRGB"
       inkscape:label="Invert"
       id="filter88353-6-9"
       x="-0.032402139"
       y="-0.030212665"
       width="1.0648043"
       height="1.0604253">
      <feColorMatrix
         values="1 0 0 0 0 0 1 0 0 0 0 0 1 0 0 -0.21 -0.72 -0.07 2 0 "
         result="fbSourceGraphic"
         id="feColorMatrix88351-9-2" />
      <feColorMatrix
         result="fbSourceGraphicAlpha"
         in="fbSourceGraphic"
         values="0 0 0 -1 0 0 0 0 -1 0 0 0 0 -1 0 0 0 0 1 0"
         id="feColorMatrix88727-3-6" />
      <feColorMatrix
         id="feColorMatrix88729-7-6"
         type="hueRotate"
         values="180"
         result="color1"
         in="fbSourceGraphic" />
      <feColorMatrix
         id="feColorMatrix88731-4-4"
         values="1 0 0 0 0 0 1 0 0 0 0 0 1 0 0 0.21 0.72 0.07 1 0 "
         result="color2" />
    </filter>
    <filter
       style="color-interpolation-filters:sRGB"
       inkscape:label="Invert"
       id="filter88357-5-9"
       x="-0.033333346"
       y="-0.050000001"
       width="1.0666667"
       height="1.1">
      <feColorMatrix
         values="1 0 0 0 0 0 1 0 0 0 0 0 1 0 0 -0.21 -0.72 -0.07 2 0 "
         result="fbSourceGraphic"
         id="feColorMatrix88355-2-5" />
      <feColorMatrix
         result="fbSourceGraphicAlpha"
         in="fbSourceGraphic"
         values="0 0 0 -1 0 0 0 0 -1 0 0 0 0 -1 0 0 0 0 1 0"
         id="feColorMatrix88733-5-0" />
      <feColorMatrix
         id="feColorMatrix88735-4-4"
         type="hueRotate"
         values="180"
         result="color1"
         in="fbSourceGraphic" />
      <feColorMatrix
         id="feColorMatrix88737-7-8"
         values="1 0 0 0 0 0 1 0 0 0 0 0 1 0 0 0.21 0.72 0.07 1 0 "
         result="color2" />
    </filter>
    <filter
       style="color-interpolation-filters:sRGB"
       inkscape:label="Invert"
       id="filter88349-5-9-3"
       x="-0.030212665"
       y="-0.032402139"
       width="1.0604253"
       height="1.0648043">
      <feColorMatrix
         values="1 0 0 0 0 0 1 0 0 0 0 0 1 0 0 -0.21 -0.72 -0.07 2 0 "
         result="fbSourceGraphic"
         id="feColorMatrix88347-4-2-6" />
      <feColorMatrix
         result="fbSourceGraphicAlpha"
         in="fbSourceGraphic"
         values="0 0 0 -1 0 0 0 0 -1 0 0 0 0 -1 0 0 0 0 1 0"
         id="feColorMatrix88721-7-0-1" />
      <feColorMatrix
         id="feColorMatrix88723-6-6-2"
         type="hueRotate"
         values="180"
         result="color1"
         in="fbSourceGraphic" />
      <feColorMatrix
         id="feColorMatrix88725-5-8-9"
         values="1 0 0 0 0 0 1 0 0 0 0 0 1 0 0 0.21 0.72 0.07 1 0 "
         result="color2" />
    </filter>
    <filter
       style="color-interpolation-filters:sRGB"
       inkscape:label="Invert"
       id="filter88353-6-9-1"
       x="-0.032402139"
       y="-0.030212665"
       width="1.0648043"
       height="1.0604253">
      <feColorMatrix
         values="1 0 0 0 0 0 1 0 0 0 0 0 1 0 0 -0.21 -0.72 -0.07 2 0 "
         result="fbSourceGraphic"
         id="feColorMatrix88351-9-2-9" />
      <feColorMatrix
         result="fbSourceGraphicAlpha"
         in="fbSourceGraphic"
         values="0 0 0 -1 0 0 0 0 -1 0 0 0 0 -1 0 0 0 0 1 0"
         id="feColorMatrix88727-3-6-4" />
      <feColorMatrix
         id="feColorMatrix88729-7-6-7"
         type="hueRotate"
         values="180"
         result="color1"
         in="fbSourceGraphic" />
      <feColorMatrix
         id="feColorMatrix88731-4-4-8"
         values="1 0 0 0 0 0 1 0 0 0 0 0 1 0 0 0.21 0.72 0.07 1 0 "
         result="color2" />
    </filter>
    <clipPath
       clipPathUnits="userSpaceOnUse"
       id="clipPath119614">
      <path
         style="fill:#249cac;fill-opacity:1;stroke:none;stroke-width:0.264583px;stroke-linecap:butt;stroke-linejoin:miter;stroke-opacity:1"
         d="M -248.17551,322.92995 V 458.39657 L -112.70886,322.92995 Z"
         id="path119616" />
    </clipPath>
    <clipPath
       clipPathUnits="userSpaceOnUse"
       id="clipPath119645">
      <path
         style="fill:#249cac;fill-opacity:1;stroke:none;stroke-width:0.264583px;stroke-linecap:butt;stroke-linejoin:miter;stroke-opacity:1"
         d="M 37.194174,319.15377 V 183.68712 L -98.272474,319.15377 Z"
         id="path119647" />
    </clipPath>
    <clipPath
       clipPathUnits="userSpaceOnUse"
       id="clipPath119614-4">
      <path
         style="fill:#249cac;fill-opacity:1;stroke:none;stroke-width:0.264583px;stroke-linecap:butt;stroke-linejoin:miter;stroke-opacity:1"
         d="M -248.17551,322.92995 V 458.39657 L -112.70886,322.92995 Z"
         id="path119616-7" />
    </clipPath>
    <clipPath
       clipPathUnits="userSpaceOnUse"
       id="clipPath119645-4">
      <path
         style="fill:#249cac;fill-opacity:1;stroke:none;stroke-width:0.264583px;stroke-linecap:butt;stroke-linejoin:miter;stroke-opacity:1"
         d="M 37.194174,319.15377 V 183.68712 L -98.272474,319.15377 Z"
         id="path119647-4" />
    </clipPath>
    <clipPath
       clipPathUnits="userSpaceOnUse"
       id="clipPath123068">
      <path
         d="m -146.33119,586.6503 c 37.33028,0.0512 67.582131,30.34176 67.62308,67.7332 -2.662653,-0.75518 -5.415433,-1.13917 -8.182276,-1.1443 -9.152811,-0.0768 -17.751854,4.38372 -22.991934,11.90009 -4.68483,6.77629 -5.67454,15.45055 -2.63733,23.11056 -1.94306,-0.34817 -3.91042,-0.52224 -5.88315,-0.52737 -8.76983,-0.0768 -17.09369,3.86739 -22.61997,10.68821 -5.40801,6.61911 -7.52258,15.33999 -5.74796,23.70627 -37.34744,-0.12803 -67.52478,-30.54501 -67.4037,-67.95233 0.12804,-37.40834 30.49582,-67.63414 67.84323,-67.51304 z m -5.15995,23.24597 c -1.03936,-0.44798 -2.16066,-0.67834 -3.29319,-0.67838 -3.41711,0.004 -6.49704,2.06592 -7.80624,5.22775 -1.30814,3.16182 -0.59135,6.80163 1.82273,9.2267 1.58978,1.58464 3.74095,2.4755 5.98427,2.47807 4.01332,-0.009 7.46626,-2.84338 8.26498,-6.78268 0.79873,-3.93931 -1.28,-7.89758 -4.97177,-9.47325 z m 39.51241,11.46723 c -1.35425,-0.56065 -2.8073,-0.84995 -4.27367,-0.84737 -4.57525,10e-4 -8.69583,2.77171 -10.42946,7.01231 -1.73314,4.2409 -0.73729,9.11076 2.52416,12.32559 2.10688,2.07873 4.94721,3.24427 7.9053,3.24427 6.22158,-0.008 11.26225,-5.05956 11.26607,-11.29108 -0.001,-4.52989 -2.69875,-8.62306 -6.85698,-10.40379 l -0.0257,2.6e-4 -0.0768,2e-5 z m -63.77513,16.98066 c -4.54555,-1.91233 -9.8038,-0.64257 -12.97974,3.13471 -3.17544,3.77674 -3.53101,9.18318 -0.87552,13.34471 0.83201,1.29534 1.91745,2.40892 3.19157,3.27165 3.50054,2.36799 8.02919,2.57585 11.73225,0.54015 3.70305,-2.03518 5.95917,-5.97321 5.84527,-10.20257 -0.10244,-4.22934 -2.57846,-8.0399 -6.38594,-9.87209 l 0.0768,-2e-5 -0.20479,-0.0768 -0.12804,-0.0512 0.0511,3e-5 c -0.1025,-0.0254 -0.17926,-0.0768 -0.28416,-0.10243 z m 29.42266,27.32966 c 2.69723,0.006 5.01993,-1.90463 5.5419,-4.55448 0.52225,-2.65036 -0.90111,-5.29992 -3.39814,-6.32264 -2.49601,-1.02402 -5.36577,-0.12806 -6.84777,2.12733 -1.48223,2.2579 -1.15968,5.25004 0.76801,7.13906 0.50175,0.49663 1.09568,0.89088 1.74593,1.16478 l 0.12805,0.0512 0.17924,0.0768 c 0.60415,0.20487 1.24429,0.32719 1.88672,0.32512 z m -25.35863,28.21774 c 4.32666,0.0114 7.95853,-3.26298 8.40217,-7.57426 0.44289,-4.31128 -2.44478,-8.25799 -6.68313,-9.13146 -4.2381,-0.87296 -8.44829,1.61023 -9.74006,5.74665 -1.29279,4.13644 0.75521,8.58057 4.73448,10.28168 h 0.0768 c 1.01888,0.43519 2.112,0.66561 3.21868,0.67839 z m 76.075954,-22.57526 c 3.11092,0 5.633051,2.52669 5.633045,5.64221 -2e-6,3.11603 -2.521614,5.64195 -5.633035,5.64195 -3.110931,0 -5.633054,-2.52669 -5.633064,-5.64195 0.004,-3.11472 2.524173,-5.63861 5.633054,-5.64221 z m 8.452895,16.93304 c 4.668414,0 8.452869,3.79082 8.452869,8.46664 0,4.67609 -3.784457,8.46667 -8.452869,8.46667 -4.668435,0 -8.452885,-3.79058 -8.452885,-8.46667 0.008,-4.67275 3.787529,-8.45896 8.452885,-8.46664 z m -33.811569,11.29107 c 4.66843,0 8.45289,3.79061 8.45289,8.46667 0,4.67582 -3.78446,8.46664 -8.45288,8.46664 -4.66841,0 -8.45288,-3.79082 -8.45288,-8.46664 1e-5,-4.67712 3.78344,-8.46974 8.45287,-8.47331 z m 19.71898,11.28443 c 3.110163,2e-5 5.631754,2.52417 5.633045,5.63967 0.0011,3.11526 -2.51904,5.64195 -5.628705,5.64451 -3.10987,0.003 -5.6338,-2.52158 -5.63739,-5.6353 0,-3.1173 2.52161,-5.64529 5.63305,-5.64888 z"
         fill="#2e3a59"
         id="path123070"
         style="stroke-width:6.77333"
         inkscape:transform-center-x="-44.159193"
         inkscape:transform-center-y="160.92391" />
    </clipPath>
    <clipPath
       clipPathUnits="userSpaceOnUse"
       id="clipPath119645-4-8">
      <path
         style="fill:#249cac;fill-opacity:1;stroke:none;stroke-width:0.264583px;stroke-linecap:butt;stroke-linejoin:miter;stroke-opacity:1"
         d="M 37.194174,319.15377 V 183.68712 L -98.272474,319.15377 Z"
         id="path119647-4-4" />
    </clipPath>
  </defs>
  <g
     inkscape:label="Layer 1"
     inkscape:groupmode="layer"
     id="layer1"
     transform="translate(1257.4453,-313.40609)">
    <g
       id="g511"
       transform="translate(40.499292,-186.77458)"
       inkscape:export-filename="/Users/arkawiec/projects/internet-czas-dzialac/rentgen/assets/icons/icon-addon-2048.png"
       inkscape:export-xdpi="96"
       inkscape:export-ydpi="96">
      <g
         id="g509"
         transform="matrix(1.0081916,0,0,1.0064873,148.45653,296.28626)">
        <g
           id="g1595"
           inkscape:export-filename="/Users/arkawiec/projects/internet-czas-dzialac/rentgen/assets/logo.png"
           inkscape:export-xdpi="96"
           inkscape:export-ydpi="96">
          <g
             id="g1589">
            <path
               style="fill:#000000;fill-opacity:1;stroke:none;stroke-width:0.0657194px;stroke-linecap:butt;stroke-linejoin:miter;stroke-opacity:1"
               d="m -1434.6491,316.91219 1e-4,-114.33198 112.5948,6.87072 10e-5,124.78187 z"
               id="path503" />
            <path
               style="fill:#99ffdd;fill-opacity:1;stroke:none;stroke-width:0.0657194px;stroke-linecap:butt;stroke-linejoin:miter;stroke-opacity:1"
               d="m -1322.2815,209.45093 21.9984,1.16661 v 126.55619 l -21.9984,-2.94092 z"
               id="path505" />
            <path
               d="m -1378.4248,311.15116 c -24.7739,-0.0339 -44.8503,-20.13623 -44.8775,-44.95095 1.767,0.50119 3.5939,0.75602 5.4301,0.75943 6.0742,0.051 11.7809,-2.90926 15.2584,-7.89747 3.1091,-4.49707 3.7659,-10.25372 1.7503,-15.33726 1.2894,0.23105 2.5951,0.34659 3.9043,0.34998 5.82,0.051 11.3441,-2.56657 15.0115,-7.09319 3.589,-4.39277 4.9923,-10.18034 3.8146,-15.73261 24.7854,0.0849 44.8123,20.27113 44.732,45.09637 -0.085,24.82595 -20.2383,44.88521 -45.0237,44.80484 z m 3.4244,-15.42711 c 0.6898,0.2973 1.4339,0.45021 2.1855,0.45021 2.2677,-0.003 4.3117,-1.37104 5.1805,-3.46939 0.8682,-2.09835 0.3925,-4.51388 -1.2096,-6.12328 -1.055,-1.05165 -2.4826,-1.64287 -3.9714,-1.64457 -2.6634,0.005 -4.9549,1.88701 -5.485,4.50133 -0.5301,2.61431 0.8495,5.24118 3.2995,6.28688 z m -26.2221,-7.6102 c 0.8987,0.37207 1.863,0.56405 2.8362,0.56235 3.0363,-6.6e-4 5.7709,-1.83943 6.9214,-4.65371 1.1502,-2.81444 0.4893,-6.04631 -1.6751,-8.17984 -1.3983,-1.37951 -3.2832,-2.15305 -5.2463,-2.15305 -4.1289,0.005 -7.4741,3.35777 -7.4767,7.49331 7e-4,3.00625 1.791,5.72266 4.5506,6.90444 h 0.017 0.051 z m 42.3239,-11.26917 c 3.0166,1.2691 6.5062,0.42644 8.6139,-2.08033 2.1073,-2.50644 2.3433,-6.0944 0.581,-8.85619 -0.5521,-0.85965 -1.2725,-1.59869 -2.118,-2.17122 -2.3232,-1.57151 -5.3286,-1.70947 -7.7861,-0.35847 -2.4575,1.35064 -3.9547,3.96411 -3.8791,6.7709 0.068,2.8068 1.7111,5.33567 4.2379,6.5516 h -0.051 l 0.136,0.051 0.085,0.0339 h -0.034 c 0.068,0.017 0.1189,0.051 0.1885,0.0679 z m -19.5262,-18.13725 c -1.79,-0.004 -3.3314,1.264 -3.6778,3.02255 -0.3466,1.75891 0.598,3.5173 2.2552,4.19601 1.6564,0.67958 3.5609,0.085 4.5444,-1.41181 0.9837,-1.49844 0.7696,-3.48415 -0.5097,-4.73779 -0.333,-0.32959 -0.7271,-0.59123 -1.1586,-0.77301 l -0.085,-0.0339 -0.1189,-0.051 c -0.401,-0.13593 -0.8257,-0.21746 -1.2522,-0.21577 z m 16.8291,-18.72662 c -2.8713,-0.007 -5.2816,2.16546 -5.576,5.02662 -0.294,2.86117 1.6224,5.48041 4.4352,6.06009 2.8126,0.57934 5.6066,-1.06863 6.4639,-3.81377 0.858,-2.74513 -0.5012,-5.69448 -3.142,-6.82341 h -0.051 c -0.6762,-0.28881 -1.4016,-0.44172 -2.1361,-0.4502 z m -50.4872,14.98201 c -2.0646,0 -3.7384,-1.67685 -3.7384,-3.74444 0,-2.06794 1.6735,-3.74427 3.7384,-3.74427 2.0645,0 3.7383,1.67685 3.7383,3.74427 0,2.06708 -1.6752,3.74205 -3.7383,3.74444 z m -5.6097,-11.23757 c -3.0982,0 -5.6097,-2.51577 -5.6097,-5.61887 0,-3.10326 2.5115,-5.61887 5.6097,-5.61887 3.0981,0 5.6097,2.51561 5.6097,5.61887 -0.01,3.10105 -2.5136,5.61377 -5.6097,5.61887 z m 22.4388,-7.49329 c -3.0982,0 -5.6097,-2.51561 -5.6097,-5.61887 0,-3.1031 2.5115,-5.61888 5.6097,-5.61888 3.0981,0 5.6096,2.51578 5.6096,5.61888 0,3.10394 -2.5108,5.62091 -5.6096,5.62328 z m -13.0864,-7.48888 c -2.064,0 -3.7375,-1.67516 -3.7383,-3.74275 -7e-4,-2.06743 1.6717,-3.74427 3.7354,-3.74597 2.0639,-0.003 3.7389,1.67345 3.7412,3.73984 0,2.0688 -1.6734,3.74649 -3.7383,3.74888 z"
               fill="#2e3a59"
               id="path507"
               style="fill:#99ffdd;fill-opacity:1;stroke-width:4.49508" />
          </g>
        </g>
      </g>
    </g>
  </g>
</svg>
