<?xml version="1.0" encoding="UTF-8" standalone="no"?>
<svg
   width="24"
   height="24"
   viewBox="0 0 24 24"
   fill="none"
   version="1.1"
   id="svg957"
   sodipodi:docname="info_circle_outline.svg"
   inkscape:version="1.1.1 (3bf5ae0d25, 2021-09-20, custom)"
   xmlns:inkscape="http://www.inkscape.org/namespaces/inkscape"
   xmlns:sodipodi="http://sodipodi.sourceforge.net/DTD/sodipodi-0.dtd"
   xmlns="http://www.w3.org/2000/svg"
   xmlns:svg="http://www.w3.org/2000/svg">
  <defs
     id="defs961" />
  <sodipodi:namedview
     id="namedview959"
     pagecolor="#ffffff"
     bordercolor="#666666"
     borderopacity="1.0"
     inkscape:pageshadow="2"
     inkscape:pageopacity="0.0"
     inkscape:pagecheckerboard="0"
     showgrid="false"
     inkscape:zoom="31.291667"
     inkscape:cx="1.9174434"
     inkscape:cy="11.984021"
     inkscape:window-width="1920"
     inkscape:window-height="1024"
     inkscape:window-x="0"
     inkscape:window-y="0"
     inkscape:window-maximized="1"
     inkscape:current-layer="svg957" />
  <path
     d="M12 22C6.47715 22 2 17.5228 2 12C2 6.47715 6.47715 2 12 2C17.5228 2 22 6.47715 22 12C21.9939 17.5203 17.5203 21.9939 12 22ZM4 12.172C4.04732 16.5732 7.64111 20.1095 12.0425 20.086C16.444 20.0622 19.9995 16.4875 19.9995 12.086C19.9995 7.68451 16.444 4.10977 12.0425 4.086C7.64111 4.06246 4.04732 7.59876 4 12V12.172ZM14 17H11V13H10V11H13V15H14V17ZM13 9H11V7H13V9Z"
     fill="#2E3A59"
     id="path955"
     style="fill:#000000" />
</svg>
