<?xml version="1.0" encoding="UTF-8" standalone="no"?>
<svg
   width="24"
   height="24"
   viewBox="0 0 24 24"
   fill="none"
   version="1.1"
   id="svg1217"
   sodipodi:docname="trash_full.svg"
   inkscape:version="1.1.1 (3bf5ae0d25, 2021-09-20, custom)"
   xmlns:inkscape="http://www.inkscape.org/namespaces/inkscape"
   xmlns:sodipodi="http://sodipodi.sourceforge.net/DTD/sodipodi-0.dtd"
   xmlns="http://www.w3.org/2000/svg"
   xmlns:svg="http://www.w3.org/2000/svg">
  <defs
     id="defs1221" />
  <sodipodi:namedview
     id="namedview1219"
     pagecolor="#ffffff"
     bordercolor="#666666"
     borderopacity="1.0"
     inkscape:pageshadow="2"
     inkscape:pageopacity="0.0"
     inkscape:pagecheckerboard="0"
     showgrid="false"
     inkscape:zoom="31.291667"
     inkscape:cx="1.9174434"
     inkscape:cy="11.984021"
     inkscape:window-width="1920"
     inkscape:window-height="1024"
     inkscape:window-x="0"
     inkscape:window-y="0"
     inkscape:window-maximized="1"
     inkscape:current-layer="svg1217" />
  <path
     d="M17 22H7C5.89543 22 5 21.1046 5 20V7H3V5H7V4C7 2.89543 7.89543 2 9 2H15C16.1046 2 17 2.89543 17 4V5H21V7H19V20C19 21.1046 18.1046 22 17 22ZM7 7V20H17V7H7ZM9 4V5H15V4H9ZM15 18H13V9H15V18ZM11 18H9V9H11V18Z"
     fill="#2E3A59"
     id="path1215"
     style="fill:#000000" />
</svg>
